<svg width="30" height="30" viewBox="0 0 30 30" fill="none" xmlns="http://www.w3.org/2000/svg">
  <mask id="mask0_4001_318" style="mask-type:alpha" maskUnits="userSpaceOnUse" x="0" y="0" width="30" height="30">
    <path
      d="M29.1217 14.3105C29.1217 22.3588 22.4923 29.0928 14.5085 29.0928C6.52462 29.0928 0 22.7781 0 14.7298C0 6.68159 6.52462 0 14.5085 0C22.4923 0 29.1217 6.26224 29.1217 14.3105Z"
      fill="#D9D9D9" />
  </mask>
  <g mask="url(#mask0_4001_318)">
    <path
      d="M14.7543 -3.35409C14.7571 -3.4694 14.8524 -3.56078 14.9677 -3.55862L22.4716 -3.41799C22.5871 -3.41584 22.6789 -3.32067 22.6772 -3.20517L22.319 20.3549C22.3161 20.5377 22.0971 20.6297 21.9649 20.5033L14.4175 13.2977C14.3747 13.2569 14.3512 13.2 14.3526 13.1408L14.7543 -3.35409Z"
      fill="#F2A258" />
    <path
      d="M-0.483662 13.3951C-0.614089 13.393 -0.714544 13.5096 -0.69349 13.6385L0.494527 20.9251C0.511082 21.0266 0.598659 21.101 0.701318 21.101L20.8436 21.1014C21.0329 21.1014 21.1251 20.87 20.9877 20.7396L13.5196 13.6574C13.4815 13.6212 13.4313 13.6006 13.3787 13.5999L-0.483662 13.3951Z"
      fill="#FACC56" />
    <path
      d="M23.173 3.26666C23.173 3.11899 23.3214 3.01753 23.4588 3.07146L28.2711 4.95778C28.3432 4.98602 28.3939 5.05183 28.4027 5.12891L29.7433 16.738C29.7478 16.776 29.7417 16.8144 29.7259 16.8492L26.3094 24.3414C26.2499 24.4717 26.0803 24.5053 25.9757 24.4074L23.0098 21.6325C22.9661 21.5917 22.942 21.534 22.9434 21.4741L23.173 12.3949V3.26666Z"
      fill="#EE701F" />
    <path
      d="M2.41134 21.6232C2.29465 21.6217 2.19922 21.716 2.19922 21.8329V23.1824C2.19922 23.2236 2.21138 23.2638 2.23411 23.2982L5.34425 27.9926C5.3761 28.0408 5.42659 28.0736 5.48358 28.0834L13.6409 29.4784C13.6601 29.4818 13.6797 29.4824 13.6991 29.4802L20.7807 28.7042C20.823 28.6996 20.8628 28.6823 20.8948 28.6545L25.2737 24.8697C25.3696 24.7868 25.3706 24.6385 25.276 24.5543L22.3176 21.9233C22.28 21.8898 22.2314 21.8711 22.1811 21.8704L2.41134 21.6232Z"
      fill="#F8AA33" />
    <path
      d="M5.21892 2.6982C5.23066 2.62955 5.27559 2.57135 5.33897 2.54261L13.3693 -1.09737C13.5094 -1.16086 13.6678 -1.05677 13.6652 -0.902918L13.4526 12.034C13.4495 12.2188 13.2265 12.3095 13.0955 12.1794L5.05309 4.19158C5.00459 4.14344 4.9827 4.07468 4.99423 4.00724L5.21892 2.6982Z"
      fill="#FCE95F" />
    <path
      d="M0.745392 6.16191C0.673435 6.19177 0.623883 6.2591 0.616967 6.3368L0.0721447 12.3827C0.0613486 12.503 0.154055 12.6076 0.274731 12.611L12.1429 12.9564C12.3332 12.9619 12.4317 12.7314 12.2963 12.5976L4.39357 4.78797C4.33365 4.72876 4.24408 4.71119 4.16625 4.74349L0.745392 6.16191Z"
      fill="#FBC585" />
  </g>
</svg>