<svg xmlns="http://www.w3.org/2000/svg" width="34" height="34" viewBox="0 0 34 34" fill="none">
  <g clip-path="url(#clip0_1945_6046)">
    <path d="M14.7562 12.625H12.084V29.617H14.7562V12.625Z" fill="#FEC93E"/>
    <path d="M15.2136 15.3994H11.6254C11.3609 15.3994 11.1465 15.1849 11.1465 14.9204V13.2939H15.6925V14.9204C15.6925 15.185 15.4781 15.3994 15.2136 15.3994Z" fill="#F7A738"/>
    <path d="M15.6925 28.9863H11.1465V27.3598C11.1465 27.0953 11.3609 26.8809 11.6254 26.8809H15.2136C15.4781 26.8809 15.6925 27.0953 15.6925 27.3598V28.9863Z" fill="#F7A738"/>
    <path d="M21.9163 12.625H19.2441V29.617H21.9163V12.625Z" fill="#FEC93E"/>
    <path d="M22.3738 15.3994H18.7856C18.5211 15.3994 18.3066 15.1849 18.3066 14.9204V13.2939H22.8527V14.9204C22.8527 15.185 22.6382 15.3994 22.3738 15.3994Z" fill="#F7A738"/>
    <path d="M22.8527 28.9863H18.3066V27.3598C18.3066 27.0953 18.5211 26.8809 18.7856 26.8809H22.3738C22.6382 26.8809 22.8527 27.0953 22.8527 27.3598V28.9863Z" fill="#F7A738"/>
    <path d="M29.0745 12.625H26.4023V29.617H29.0745V12.625Z" fill="#FEC93E"/>
    <path d="M29.5339 15.3994H25.9457C25.6812 15.3994 25.4668 15.1849 25.4668 14.9204V13.2939H30.0128V14.9204C30.0128 15.185 29.7984 15.3994 29.5339 15.3994Z" fill="#F7A738"/>
    <path d="M30.0128 28.9863H25.4668V27.3598C25.4668 27.0953 25.6812 26.8809 25.9457 26.8809H29.5339C29.7984 26.8809 30.0128 27.0953 30.0128 27.3598V28.9863Z" fill="#F7A738"/>
    <path d="M7.59601 12.625H4.92383V29.617H7.59601V12.625Z" fill="#FEC93E"/>
    <path d="M8.05546 15.3994H4.4672C4.20271 15.3994 3.98828 15.1849 3.98828 14.9204V13.2939H8.53431V14.9204C8.53431 15.185 8.31995 15.3994 8.05546 15.3994Z" fill="#F7A738"/>
    <path d="M8.53431 28.9863H3.98828V27.3598C3.98828 27.0953 4.20271 26.8809 4.4672 26.8809H8.05539C8.31989 26.8809 8.53431 27.0953 8.53431 27.3598V28.9863Z" fill="#F7A738"/>
    <path d="M31.9485 13.2937H2.05215C1.79356 13.2937 1.58398 13.0841 1.58398 12.8255V10.8256C1.58398 10.567 1.79363 10.3574 2.05215 10.3574H31.9484C32.207 10.3574 32.4165 10.5671 32.4165 10.8256V12.8255C32.4166 13.0841 32.207 13.2937 31.9485 13.2937Z" fill="#FEC93E"/>
    <path d="M31.9485 10.3574H28.7168V13.2938H31.9485C32.2071 13.2938 32.4167 13.0841 32.4167 12.8256V10.8257C32.4167 10.5671 32.2071 10.3574 31.9485 10.3574Z" fill="#EFB635"/>
    <path d="M32.7085 31.0231H1.29297V29.7023C1.29297 29.3069 1.61351 28.9863 2.00896 28.9863H31.9926C32.388 28.9863 32.7086 29.3069 32.7086 29.7023V31.0231H32.7085Z" fill="#FEC93E"/>
    <path d="M31.9918 28.9863H29.0078V31.0231H32.7077V29.7023C32.7078 29.3069 32.3872 28.9863 31.9918 28.9863Z" fill="#EFB635"/>
    <path d="M33.754 33.0602H0.245968C0.110101 33.0602 0 32.9501 0 32.8143V31.7394C0 31.344 0.320542 31.0234 0.715991 31.0234H33.284C33.6795 31.0234 34 31.344 34 31.7394V32.8143C33.9999 32.9501 33.8898 33.0602 33.754 33.0602Z" fill="#F7A738"/>
    <path d="M33.2832 31.0234H30.3164V33.0602H33.7532C33.8891 33.0602 33.9992 32.9501 33.9992 32.8142V31.7394C33.9992 31.344 33.6787 31.0234 33.2832 31.0234Z" fill="#E8932E"/>
    <path d="M17.0175 0.998761L0.1908 9.82546C0.0974999 9.8744 0.0390625 9.97102 0.0390625 10.0763V10.9802C0.0390625 11.1367 0.165898 11.2635 0.322351 11.2635H33.6768C33.8333 11.2635 33.9601 11.1367 33.9601 10.9802V10.0739C33.9601 9.96983 33.9031 9.87414 33.8116 9.82467L17.4966 1.00175C17.3474 0.921066 17.1678 0.919937 17.0175 0.998761Z" fill="#F7A738"/>
    <path d="M33.8111 9.8247L17.4962 1.00178C17.347 0.9211 17.1674 0.919904 17.0171 0.998728L14.0996 2.52912L30.2508 11.2635H33.6764C33.8329 11.2635 33.9597 11.1367 33.9597 10.9802V10.0739C33.9597 9.96986 33.9026 9.87417 33.8111 9.8247Z" fill="#E8932E"/>
  </g>
  <defs>
    <clipPath id="clip0_1945_6046">
      <rect width="34" height="34" fill="white"/>
    </clipPath>
  </defs>
</svg>
