<?xml version="1.0" encoding="UTF-8"?> <svg xmlns="http://www.w3.org/2000/svg" width="563" height="281" viewBox="0 0 563 281" fill="none"><path d="M301.808 226V208.545H304.442V216.881H304.655L311.976 208.545H315.291L308.251 216.403L315.317 226H312.146L306.504 218.202L304.442 220.571V226H301.808ZM320.089 218.227V226H317.541V208.545H320.055V215.04H320.217C320.524 214.335 320.993 213.776 321.624 213.361C322.254 212.946 323.078 212.739 324.095 212.739C324.993 212.739 325.777 212.923 326.447 213.293C327.124 213.662 327.646 214.213 328.016 214.946C328.391 215.673 328.578 216.582 328.578 217.673V226H326.03V217.98C326.03 217.02 325.783 216.276 325.288 215.747C324.794 215.213 324.107 214.946 323.226 214.946C322.624 214.946 322.084 215.074 321.607 215.33C321.135 215.585 320.763 215.96 320.49 216.455C320.223 216.943 320.089 217.534 320.089 218.227ZM337.493 226.264C336.266 226.264 335.195 225.983 334.28 225.42C333.365 224.858 332.655 224.071 332.149 223.06C331.643 222.048 331.391 220.866 331.391 219.514C331.391 218.156 331.643 216.969 332.149 215.952C332.655 214.935 333.365 214.145 334.28 213.582C335.195 213.02 336.266 212.739 337.493 212.739C338.72 212.739 339.791 213.02 340.706 213.582C341.621 214.145 342.331 214.935 342.837 215.952C343.342 216.969 343.595 218.156 343.595 219.514C343.595 220.866 343.342 222.048 342.837 223.06C342.331 224.071 341.621 224.858 340.706 225.42C339.791 225.983 338.72 226.264 337.493 226.264ZM337.501 224.125C338.297 224.125 338.956 223.915 339.479 223.494C340.001 223.074 340.388 222.514 340.638 221.815C340.893 221.116 341.021 220.347 341.021 219.506C341.021 218.67 340.893 217.903 340.638 217.205C340.388 216.5 340.001 215.935 339.479 215.509C338.956 215.082 338.297 214.869 337.501 214.869C336.7 214.869 336.036 215.082 335.507 215.509C334.984 215.935 334.595 216.5 334.339 217.205C334.089 217.903 333.964 218.67 333.964 219.506C333.964 220.347 334.089 221.116 334.339 221.815C334.595 222.514 334.984 223.074 335.507 223.494C336.036 223.915 336.7 224.125 337.501 224.125ZM339.24 211.341L337.493 209.057L335.737 211.341H333.436V211.213L336.428 207.599H338.55L341.55 211.213V211.341H339.24ZM348.988 218.227V226H346.44V212.909H348.886V215.04H349.048C349.349 214.347 349.82 213.79 350.462 213.369C351.11 212.949 351.925 212.739 352.908 212.739C353.8 212.739 354.582 212.926 355.252 213.301C355.923 213.67 356.442 214.222 356.812 214.955C357.181 215.687 357.366 216.594 357.366 217.673V226H354.817V217.98C354.817 217.031 354.57 216.29 354.076 215.756C353.582 215.216 352.903 214.946 352.039 214.946C351.448 214.946 350.923 215.074 350.462 215.33C350.008 215.585 349.647 215.96 349.38 216.455C349.119 216.943 348.988 217.534 348.988 218.227ZM366.272 231.182C365.232 231.182 364.337 231.045 363.587 230.773C362.843 230.5 362.235 230.139 361.763 229.69C361.292 229.241 360.94 228.75 360.707 228.216L362.897 227.312C363.05 227.562 363.255 227.827 363.511 228.105C363.772 228.389 364.124 228.631 364.567 228.83C365.016 229.028 365.593 229.128 366.298 229.128C367.263 229.128 368.062 228.892 368.692 228.42C369.323 227.955 369.638 227.21 369.638 226.188V223.614H369.477C369.323 223.892 369.102 224.202 368.812 224.543C368.528 224.884 368.136 225.179 367.636 225.429C367.136 225.679 366.485 225.804 365.684 225.804C364.65 225.804 363.718 225.562 362.888 225.08C362.065 224.591 361.411 223.872 360.928 222.923C360.451 221.969 360.212 220.795 360.212 219.403C360.212 218.011 360.448 216.818 360.92 215.824C361.397 214.83 362.05 214.068 362.88 213.54C363.71 213.006 364.65 212.739 365.701 212.739C366.513 212.739 367.17 212.875 367.67 213.148C368.17 213.415 368.559 213.727 368.837 214.085C369.121 214.443 369.34 214.759 369.494 215.031H369.681V212.909H372.178V226.29C372.178 227.415 371.917 228.338 371.394 229.06C370.871 229.781 370.164 230.315 369.272 230.662C368.386 231.009 367.386 231.182 366.272 231.182ZM366.246 223.69C366.979 223.69 367.599 223.52 368.104 223.179C368.616 222.832 369.002 222.338 369.263 221.696C369.531 221.048 369.664 220.273 369.664 219.369C369.664 218.489 369.533 217.713 369.272 217.043C369.011 216.372 368.627 215.849 368.121 215.474C367.616 215.094 366.991 214.903 366.246 214.903C365.479 214.903 364.84 215.102 364.329 215.5C363.817 215.892 363.431 216.426 363.17 217.102C362.914 217.778 362.786 218.534 362.786 219.369C362.786 220.227 362.917 220.98 363.178 221.628C363.44 222.276 363.826 222.781 364.337 223.145C364.854 223.509 365.491 223.69 366.246 223.69ZM388.058 212.909V214.955H380.908V212.909H388.058ZM382.825 209.773H385.374V222.156C385.374 222.651 385.447 223.023 385.595 223.273C385.743 223.517 385.933 223.685 386.166 223.776C386.405 223.861 386.663 223.903 386.942 223.903C387.146 223.903 387.325 223.889 387.479 223.861C387.632 223.832 387.751 223.81 387.837 223.793L388.297 225.898C388.149 225.955 387.939 226.011 387.666 226.068C387.393 226.131 387.053 226.165 386.643 226.17C385.973 226.182 385.348 226.062 384.768 225.812C384.189 225.562 383.72 225.176 383.362 224.653C383.004 224.131 382.825 223.474 382.825 222.685V209.773ZM393.707 218.227V226H391.158V208.545H393.673V215.04H393.835C394.141 214.335 394.61 213.776 395.241 213.361C395.871 212.946 396.695 212.739 397.712 212.739C398.61 212.739 399.394 212.923 400.065 213.293C400.741 213.662 401.263 214.213 401.633 214.946C402.008 215.673 402.195 216.582 402.195 217.673V226H399.647V217.98C399.647 217.02 399.4 216.276 398.906 215.747C398.411 215.213 397.724 214.946 396.843 214.946C396.241 214.946 395.701 215.074 395.224 215.33C394.752 215.585 394.38 215.96 394.107 216.455C393.84 216.943 393.707 217.534 393.707 218.227ZM411.238 226.264C409.948 226.264 408.837 225.989 407.906 225.438C406.979 224.881 406.263 224.099 405.758 223.094C405.258 222.082 405.008 220.898 405.008 219.54C405.008 218.199 405.258 217.017 405.758 215.994C406.263 214.972 406.968 214.173 407.871 213.599C408.781 213.026 409.843 212.739 411.059 212.739C411.798 212.739 412.513 212.861 413.207 213.105C413.9 213.349 414.522 213.733 415.073 214.256C415.624 214.778 416.059 215.457 416.377 216.293C416.695 217.122 416.854 218.131 416.854 219.318V220.222H406.448V218.312H414.357C414.357 217.642 414.221 217.048 413.948 216.531C413.675 216.009 413.292 215.597 412.798 215.295C412.309 214.994 411.735 214.844 411.076 214.844C410.36 214.844 409.735 215.02 409.201 215.372C408.673 215.719 408.263 216.173 407.974 216.736C407.69 217.293 407.548 217.898 407.548 218.551V220.043C407.548 220.918 407.701 221.662 408.008 222.276C408.32 222.889 408.755 223.358 409.312 223.682C409.869 224 410.519 224.159 411.263 224.159C411.746 224.159 412.187 224.091 412.585 223.955C412.982 223.812 413.326 223.602 413.616 223.324C413.906 223.045 414.127 222.702 414.281 222.293L416.692 222.727C416.499 223.437 416.153 224.06 415.653 224.594C415.158 225.122 414.536 225.534 413.786 225.83C413.042 226.119 412.192 226.264 411.238 226.264ZM406.55 211.341L410.011 208.384H411.911L415.38 211.341H412.874L410.982 209.653L409.073 211.341H406.55ZM414.468 209.449L416.249 206.338H418.849L416.335 209.449H414.468ZM431.548 226.264C430.281 226.264 429.19 225.977 428.275 225.403C427.366 224.824 426.667 224.026 426.178 223.009C425.69 221.991 425.445 220.827 425.445 219.514C425.445 218.185 425.695 217.011 426.195 215.994C426.695 214.972 427.4 214.173 428.309 213.599C429.218 213.026 430.289 212.739 431.522 212.739C432.516 212.739 433.403 212.923 434.181 213.293C434.96 213.656 435.587 214.168 436.065 214.827C436.548 215.486 436.835 216.256 436.925 217.136H434.445C434.309 216.523 433.996 215.994 433.508 215.551C433.025 215.108 432.377 214.886 431.565 214.886C430.854 214.886 430.232 215.074 429.698 215.449C429.17 215.818 428.758 216.347 428.462 217.034C428.167 217.716 428.019 218.523 428.019 219.455C428.019 220.409 428.164 221.233 428.454 221.926C428.744 222.619 429.153 223.156 429.681 223.537C430.215 223.918 430.843 224.108 431.565 224.108C432.048 224.108 432.485 224.02 432.877 223.844C433.275 223.662 433.607 223.403 433.874 223.068C434.147 222.733 434.337 222.33 434.445 221.858H436.925C436.835 222.705 436.559 223.46 436.099 224.125C435.638 224.79 435.022 225.312 434.249 225.693C433.482 226.074 432.582 226.264 431.548 226.264ZM442.199 218.227V226H439.651V208.545H442.165V215.04H442.327C442.634 214.335 443.102 213.776 443.733 213.361C444.364 212.946 445.188 212.739 446.205 212.739C447.102 212.739 447.886 212.923 448.557 213.293C449.233 213.662 449.756 214.213 450.125 214.946C450.5 215.673 450.688 216.582 450.688 217.673V226H448.139V217.98C448.139 217.02 447.892 216.276 447.398 215.747C446.903 215.213 446.216 214.946 445.335 214.946C444.733 214.946 444.193 215.074 443.716 215.33C443.244 215.585 442.872 215.96 442.599 216.455C442.332 216.943 442.199 217.534 442.199 218.227ZM457.898 226.29C457.068 226.29 456.318 226.136 455.648 225.83C454.977 225.517 454.446 225.065 454.054 224.474C453.668 223.884 453.474 223.159 453.474 222.301C453.474 221.562 453.616 220.955 453.901 220.477C454.185 220 454.568 219.622 455.051 219.344C455.534 219.065 456.074 218.855 456.67 218.713C457.267 218.571 457.875 218.463 458.494 218.389C459.278 218.298 459.915 218.224 460.403 218.168C460.892 218.105 461.247 218.006 461.469 217.869C461.69 217.733 461.801 217.511 461.801 217.205V217.145C461.801 216.401 461.591 215.824 461.17 215.415C460.756 215.006 460.136 214.801 459.312 214.801C458.455 214.801 457.778 214.991 457.284 215.372C456.795 215.747 456.457 216.165 456.27 216.625L453.875 216.08C454.159 215.284 454.574 214.642 455.119 214.153C455.67 213.659 456.304 213.301 457.02 213.08C457.736 212.852 458.489 212.739 459.278 212.739C459.801 212.739 460.355 212.801 460.94 212.926C461.531 213.045 462.082 213.267 462.594 213.591C463.111 213.915 463.534 214.378 463.864 214.98C464.193 215.577 464.358 216.352 464.358 217.307V226H461.869V224.21H461.767C461.602 224.54 461.355 224.864 461.026 225.182C460.696 225.5 460.273 225.764 459.756 225.974C459.239 226.185 458.619 226.29 457.898 226.29ZM458.452 224.244C459.156 224.244 459.759 224.105 460.259 223.827C460.764 223.548 461.148 223.185 461.409 222.736C461.676 222.281 461.81 221.795 461.81 221.278V219.591C461.719 219.682 461.543 219.767 461.281 219.847C461.026 219.92 460.733 219.986 460.403 220.043C460.074 220.094 459.753 220.142 459.44 220.188C459.128 220.227 458.866 220.261 458.656 220.29C458.162 220.352 457.71 220.457 457.301 220.605C456.898 220.753 456.574 220.966 456.33 221.244C456.091 221.517 455.972 221.881 455.972 222.335C455.972 222.966 456.205 223.443 456.67 223.767C457.136 224.085 457.73 224.244 458.452 224.244ZM455 211.341L458.46 208.384H460.361L463.83 211.341H461.324L459.432 209.653L457.523 211.341H455ZM462.918 209.449L464.699 206.338H467.298L464.784 209.449H462.918ZM467.752 230.909V212.909H470.241V215.031H470.454C470.602 214.759 470.815 214.443 471.093 214.085C471.371 213.727 471.758 213.415 472.252 213.148C472.746 212.875 473.4 212.739 474.212 212.739C475.269 212.739 476.212 213.006 477.042 213.54C477.871 214.074 478.522 214.844 478.994 215.849C479.471 216.855 479.71 218.065 479.71 219.48C479.71 220.895 479.474 222.108 479.002 223.119C478.531 224.125 477.883 224.901 477.059 225.446C476.235 225.986 475.295 226.256 474.238 226.256C473.442 226.256 472.792 226.122 472.286 225.855C471.786 225.588 471.394 225.276 471.11 224.918C470.826 224.56 470.607 224.241 470.454 223.963H470.3V230.909H467.752ZM470.249 219.455C470.249 220.375 470.383 221.182 470.65 221.875C470.917 222.568 471.303 223.111 471.809 223.503C472.315 223.889 472.934 224.082 473.667 224.082C474.428 224.082 475.065 223.881 475.576 223.477C476.087 223.068 476.474 222.514 476.735 221.815C477.002 221.116 477.136 220.33 477.136 219.455C477.136 218.591 477.005 217.815 476.744 217.128C476.488 216.44 476.102 215.898 475.585 215.5C475.073 215.102 474.434 214.903 473.667 214.903C472.928 214.903 472.303 215.094 471.792 215.474C471.286 215.855 470.903 216.386 470.641 217.068C470.38 217.75 470.249 218.545 470.249 219.455ZM495.027 212.909V214.955H487.876V212.909H495.027ZM489.794 209.773H492.342V222.156C492.342 222.651 492.416 223.023 492.564 223.273C492.712 223.517 492.902 223.685 493.135 223.776C493.374 223.861 493.632 223.903 493.911 223.903C494.115 223.903 494.294 223.889 494.447 223.861C494.601 223.832 494.72 223.81 494.805 223.793L495.266 225.898C495.118 225.955 494.908 226.011 494.635 226.068C494.362 226.131 494.021 226.165 493.612 226.17C492.942 226.182 492.317 226.062 491.737 225.812C491.158 225.562 490.689 225.176 490.331 224.653C489.973 224.131 489.794 223.474 489.794 222.685V209.773ZM501.656 226.29C500.826 226.29 500.076 226.136 499.406 225.83C498.735 225.517 498.204 225.065 497.812 224.474C497.425 223.884 497.232 223.159 497.232 222.301C497.232 221.562 497.374 220.955 497.658 220.477C497.942 220 498.326 219.622 498.809 219.344C499.292 219.065 499.832 218.855 500.428 218.713C501.025 218.571 501.633 218.463 502.252 218.389C503.036 218.298 503.673 218.224 504.161 218.168C504.65 218.105 505.005 218.006 505.227 217.869C505.448 217.733 505.559 217.511 505.559 217.205V217.145C505.559 216.401 505.349 215.824 504.928 215.415C504.513 215.006 503.894 214.801 503.07 214.801C502.212 214.801 501.536 214.991 501.042 215.372C500.553 215.747 500.215 216.165 500.028 216.625L497.633 216.08C497.917 215.284 498.332 214.642 498.877 214.153C499.428 213.659 500.062 213.301 500.778 213.08C501.494 212.852 502.246 212.739 503.036 212.739C503.559 212.739 504.113 212.801 504.698 212.926C505.289 213.045 505.84 213.267 506.352 213.591C506.869 213.915 507.292 214.378 507.621 214.98C507.951 215.577 508.116 216.352 508.116 217.307V226H505.627V224.21H505.525C505.36 224.54 505.113 224.864 504.783 225.182C504.454 225.5 504.031 225.764 503.513 225.974C502.996 226.185 502.377 226.29 501.656 226.29ZM502.21 224.244C502.914 224.244 503.516 224.105 504.016 223.827C504.522 223.548 504.906 223.185 505.167 222.736C505.434 222.281 505.567 221.795 505.567 221.278V219.591C505.477 219.682 505.3 219.767 505.039 219.847C504.783 219.92 504.491 219.986 504.161 220.043C503.832 220.094 503.511 220.142 503.198 220.188C502.886 220.227 502.624 220.261 502.414 220.29C501.92 220.352 501.468 220.457 501.059 220.605C500.656 220.753 500.332 220.966 500.087 221.244C499.849 221.517 499.729 221.881 499.729 222.335C499.729 222.966 499.962 223.443 500.428 223.767C500.894 224.085 501.488 224.244 502.21 224.244ZM502.175 211.162L499.542 207.233H502.227L504.212 211.162H502.175ZM511.51 226V212.909H514.058V226H511.51ZM512.797 210.889C512.354 210.889 511.973 210.741 511.655 210.446C511.342 210.145 511.186 209.787 511.186 209.372C511.186 208.952 511.342 208.594 511.655 208.298C511.973 207.997 512.354 207.847 512.797 207.847C513.24 207.847 513.618 207.997 513.93 208.298C514.249 208.594 514.408 208.952 514.408 209.372C514.408 209.787 514.249 210.145 513.93 210.446C513.618 210.741 513.24 210.889 512.797 210.889ZM533.648 216.105L531.338 216.514C531.241 216.219 531.088 215.937 530.878 215.67C530.673 215.403 530.395 215.185 530.043 215.014C529.69 214.844 529.25 214.759 528.722 214.759C528 214.759 527.398 214.92 526.915 215.244C526.432 215.562 526.19 215.974 526.19 216.48C526.19 216.918 526.352 217.27 526.676 217.537C527 217.804 527.523 218.023 528.244 218.193L530.324 218.67C531.528 218.949 532.426 219.378 533.017 219.957C533.608 220.537 533.903 221.29 533.903 222.216C533.903 223 533.676 223.699 533.222 224.312C532.773 224.92 532.145 225.398 531.338 225.744C530.537 226.091 529.608 226.264 528.551 226.264C527.085 226.264 525.889 225.952 524.963 225.327C524.037 224.696 523.469 223.801 523.259 222.642L525.722 222.267C525.875 222.909 526.19 223.395 526.668 223.724C527.145 224.048 527.767 224.21 528.534 224.21C529.369 224.21 530.037 224.037 530.537 223.69C531.037 223.338 531.287 222.909 531.287 222.403C531.287 221.994 531.134 221.651 530.827 221.372C530.526 221.094 530.062 220.884 529.438 220.741L527.222 220.256C526 219.977 525.097 219.534 524.511 218.926C523.932 218.318 523.642 217.548 523.642 216.616C523.642 215.844 523.858 215.168 524.29 214.588C524.722 214.009 525.318 213.557 526.08 213.233C526.841 212.903 527.713 212.739 528.696 212.739C530.111 212.739 531.224 213.045 532.037 213.659C532.849 214.267 533.386 215.082 533.648 216.105ZM540.515 226.29C539.685 226.29 538.935 226.136 538.265 225.83C537.594 225.517 537.063 225.065 536.671 224.474C536.285 223.884 536.092 223.159 536.092 222.301C536.092 221.562 536.234 220.955 536.518 220.477C536.802 220 537.185 219.622 537.668 219.344C538.151 219.065 538.691 218.855 539.288 218.713C539.884 218.571 540.492 218.463 541.112 218.389C541.896 218.298 542.532 218.224 543.021 218.168C543.509 218.105 543.864 218.006 544.086 217.869C544.308 217.733 544.418 217.511 544.418 217.205V217.145C544.418 216.401 544.208 215.824 543.788 215.415C543.373 215.006 542.754 214.801 541.93 214.801C541.072 214.801 540.396 214.991 539.901 215.372C539.413 215.747 539.075 216.165 538.887 216.625L536.492 216.08C536.776 215.284 537.191 214.642 537.737 214.153C538.288 213.659 538.921 213.301 539.637 213.08C540.353 212.852 541.106 212.739 541.896 212.739C542.418 212.739 542.972 212.801 543.558 212.926C544.148 213.045 544.7 213.267 545.211 213.591C545.728 213.915 546.151 214.378 546.481 214.98C546.81 215.577 546.975 216.352 546.975 217.307V226H544.487V224.21H544.384C544.219 224.54 543.972 224.864 543.643 225.182C543.313 225.5 542.89 225.764 542.373 225.974C541.856 226.185 541.237 226.29 540.515 226.29ZM541.069 224.244C541.773 224.244 542.376 224.105 542.876 223.827C543.381 223.548 543.765 223.185 544.026 222.736C544.293 222.281 544.427 221.795 544.427 221.278V219.591C544.336 219.682 544.16 219.767 543.898 219.847C543.643 219.92 543.35 219.986 543.021 220.043C542.691 220.094 542.37 220.142 542.058 220.188C541.745 220.227 541.484 220.261 541.273 220.29C540.779 220.352 540.327 220.457 539.918 220.605C539.515 220.753 539.191 220.966 538.947 221.244C538.708 221.517 538.589 221.881 538.589 222.335C538.589 222.966 538.822 223.443 539.288 223.767C539.754 224.085 540.347 224.244 541.069 224.244ZM543.072 211.102H541.06L540.992 209.364C541.594 209.335 542.021 209.256 542.271 209.125C542.521 208.989 542.643 208.793 542.637 208.537C542.643 208.23 542.469 208.011 542.117 207.881C541.771 207.75 541.347 207.685 540.847 207.685L540.924 206.278C542.214 206.278 543.191 206.483 543.856 206.892C544.526 207.301 544.859 207.852 544.853 208.545C544.859 209.108 544.674 209.523 544.299 209.79C543.93 210.051 543.521 210.216 543.072 210.284V211.102ZM552.918 218.227V226H550.369V212.909H552.815V215.04H552.977C553.278 214.347 553.75 213.79 554.392 213.369C555.04 212.949 555.855 212.739 556.838 212.739C557.73 212.739 558.511 212.926 559.182 213.301C559.852 213.67 560.372 214.222 560.741 214.955C561.111 215.687 561.295 216.594 561.295 217.673V226H558.747V217.98C558.747 217.031 558.5 216.29 558.006 215.756C557.511 215.216 556.832 214.946 555.969 214.946C555.378 214.946 554.852 215.074 554.392 215.33C553.938 215.585 553.577 215.96 553.31 216.455C553.048 216.943 552.918 217.534 552.918 218.227ZM95.9865 256.812V254.545H109.495V256.812H104.049V272H101.424V256.812H95.9865ZM114.824 264.227V272H112.276V254.545H114.79V261.04H114.952C115.259 260.335 115.727 259.776 116.358 259.361C116.989 258.946 117.813 258.739 118.83 258.739C119.727 258.739 120.511 258.923 121.182 259.293C121.858 259.662 122.381 260.213 122.75 260.946C123.125 261.673 123.312 262.582 123.312 263.673V272H120.764V263.98C120.764 263.02 120.517 262.276 120.023 261.747C119.528 261.213 118.841 260.946 117.96 260.946C117.358 260.946 116.818 261.074 116.341 261.33C115.869 261.585 115.497 261.96 115.224 262.455C114.957 262.943 114.824 263.534 114.824 264.227ZM135.006 266.571V258.909H137.562V272H135.057V269.733H134.92C134.619 270.432 134.136 271.014 133.472 271.48C132.813 271.94 131.991 272.17 131.009 272.17C130.168 272.17 129.423 271.986 128.776 271.616C128.134 271.241 127.628 270.688 127.259 269.955C126.895 269.222 126.713 268.315 126.713 267.236V258.909H129.261V266.929C129.261 267.821 129.509 268.531 130.003 269.06C130.497 269.588 131.139 269.852 131.929 269.852C132.406 269.852 132.881 269.733 133.352 269.494C133.83 269.256 134.224 268.895 134.537 268.412C134.855 267.929 135.011 267.315 135.006 266.571ZM133.19 257.102H131.179L131.111 255.364C131.713 255.335 132.139 255.256 132.389 255.125C132.639 254.989 132.761 254.793 132.756 254.537C132.761 254.23 132.588 254.011 132.236 253.881C131.889 253.75 131.466 253.685 130.966 253.685L131.043 252.278C132.332 252.278 133.31 252.483 133.974 252.892C134.645 253.301 134.977 253.852 134.972 254.545C134.977 255.108 134.793 255.523 134.418 255.79C134.048 256.051 133.639 256.216 133.19 256.284V257.102ZM153.449 258.909V260.955H146.298V258.909H153.449ZM148.216 255.773H150.764V268.156C150.764 268.651 150.838 269.023 150.986 269.273C151.134 269.517 151.324 269.685 151.557 269.776C151.795 269.861 152.054 269.903 152.332 269.903C152.537 269.903 152.716 269.889 152.869 269.861C153.023 269.832 153.142 269.81 153.227 269.793L153.688 271.898C153.54 271.955 153.33 272.011 153.057 272.068C152.784 272.131 152.443 272.165 152.034 272.17C151.364 272.182 150.739 272.062 150.159 271.812C149.58 271.562 149.111 271.176 148.753 270.653C148.395 270.131 148.216 269.474 148.216 268.685V255.773ZM164.56 266.571V258.909H167.117V272H164.612V269.733H164.475C164.174 270.432 163.691 271.014 163.026 271.48C162.367 271.94 161.546 272.17 160.563 272.17C159.722 272.17 158.978 271.986 158.33 271.616C157.688 271.241 157.183 270.688 156.813 269.955C156.45 269.222 156.268 268.315 156.268 267.236V258.909H158.816V266.929C158.816 267.821 159.063 268.531 159.558 269.06C160.052 269.588 160.694 269.852 161.484 269.852C161.961 269.852 162.435 269.733 162.907 269.494C163.384 269.256 163.779 268.895 164.092 268.412C164.41 267.929 164.566 267.315 164.56 266.571ZM161.884 276.517C161.447 276.517 161.069 276.369 160.751 276.074C160.433 275.778 160.273 275.42 160.273 275C160.273 274.58 160.433 274.222 160.751 273.926C161.069 273.631 161.447 273.483 161.884 273.483C162.327 273.483 162.705 273.631 163.018 273.926C163.336 274.222 163.495 274.58 163.495 275C163.495 275.42 163.336 275.778 163.018 276.074C162.705 276.369 162.327 276.517 161.884 276.517ZM176.055 272.264C174.788 272.264 173.697 271.977 172.783 271.403C171.874 270.824 171.175 270.026 170.686 269.009C170.197 267.991 169.953 266.827 169.953 265.514C169.953 264.185 170.203 263.011 170.703 261.994C171.203 260.972 171.908 260.173 172.817 259.599C173.726 259.026 174.797 258.739 176.03 258.739C177.024 258.739 177.911 258.923 178.689 259.293C179.467 259.656 180.095 260.168 180.572 260.827C181.055 261.486 181.342 262.256 181.433 263.136H178.953C178.817 262.523 178.504 261.994 178.016 261.551C177.533 261.108 176.885 260.886 176.072 260.886C175.362 260.886 174.74 261.074 174.206 261.449C173.678 261.818 173.266 262.347 172.97 263.034C172.675 263.716 172.527 264.523 172.527 265.455C172.527 266.409 172.672 267.233 172.962 267.926C173.251 268.619 173.661 269.156 174.189 269.537C174.723 269.918 175.351 270.108 176.072 270.108C176.555 270.108 176.993 270.02 177.385 269.844C177.783 269.662 178.115 269.403 178.382 269.068C178.655 268.733 178.845 268.33 178.953 267.858H181.433C181.342 268.705 181.067 269.46 180.607 270.125C180.146 270.79 179.53 271.312 178.757 271.693C177.99 272.074 177.089 272.264 176.055 272.264ZM195.411 272.256C194.354 272.256 193.411 271.986 192.581 271.446C191.757 270.901 191.109 270.125 190.638 269.119C190.172 268.108 189.939 266.895 189.939 265.48C189.939 264.065 190.175 262.855 190.646 261.849C191.124 260.844 191.777 260.074 192.607 259.54C193.436 259.006 194.376 258.739 195.428 258.739C196.24 258.739 196.893 258.875 197.388 259.148C197.888 259.415 198.274 259.727 198.547 260.085C198.825 260.443 199.041 260.759 199.195 261.031H199.348V254.545H201.896V272H199.408V269.963H199.195C199.041 270.241 198.82 270.56 198.53 270.918C198.246 271.276 197.854 271.588 197.354 271.855C196.854 272.122 196.206 272.256 195.411 272.256ZM195.973 270.082C196.706 270.082 197.325 269.889 197.831 269.503C198.342 269.111 198.729 268.568 198.99 267.875C199.257 267.182 199.391 266.375 199.391 265.455C199.391 264.545 199.26 263.75 198.999 263.068C198.737 262.386 198.354 261.855 197.848 261.474C197.342 261.094 196.717 260.903 195.973 260.903C195.206 260.903 194.567 261.102 194.055 261.5C193.544 261.898 193.158 262.44 192.896 263.128C192.641 263.815 192.513 264.591 192.513 265.455C192.513 266.33 192.643 267.116 192.905 267.815C193.166 268.514 193.553 269.068 194.064 269.477C194.581 269.881 195.217 270.082 195.973 270.082ZM195.811 257.861V256.097H203.643V257.861H195.811ZM216.477 257.997H218.445C218.445 259.338 218.141 260.398 217.533 261.176C216.931 261.949 215.903 262.335 214.448 262.335V260.903C215.028 260.903 215.462 260.784 215.752 260.545C216.042 260.301 216.235 259.963 216.332 259.531C216.428 259.094 216.477 258.582 216.477 257.997ZM211.048 272.264C209.82 272.264 208.749 271.983 207.835 271.42C206.92 270.858 206.21 270.071 205.704 269.06C205.198 268.048 204.945 266.866 204.945 265.514C204.945 264.156 205.198 262.969 205.704 261.952C206.21 260.935 206.92 260.145 207.835 259.582C208.749 259.02 209.82 258.739 211.048 258.739C212.275 258.739 213.346 259.02 214.261 259.582C215.175 260.145 215.886 260.935 216.391 261.952C216.897 262.969 217.15 264.156 217.15 265.514C217.15 266.866 216.897 268.048 216.391 269.06C215.886 270.071 215.175 270.858 214.261 271.42C213.346 271.983 212.275 272.264 211.048 272.264ZM211.056 270.125C211.852 270.125 212.511 269.915 213.033 269.494C213.556 269.074 213.942 268.514 214.192 267.815C214.448 267.116 214.576 266.347 214.576 265.506C214.576 264.67 214.448 263.903 214.192 263.205C213.942 262.5 213.556 261.935 213.033 261.509C212.511 261.082 211.852 260.869 211.056 260.869C210.255 260.869 209.59 261.082 209.062 261.509C208.539 261.935 208.15 262.5 207.894 263.205C207.644 263.903 207.519 264.67 207.519 265.506C207.519 266.347 207.644 267.116 207.894 267.815C208.15 268.514 208.539 269.074 209.062 269.494C209.59 269.915 210.255 270.125 211.056 270.125ZM222.707 264.227V272H220.158V258.909H222.604V261.04H222.766C223.067 260.347 223.539 259.79 224.181 259.369C224.829 258.949 225.644 258.739 226.627 258.739C227.519 258.739 228.3 258.926 228.971 259.301C229.641 259.67 230.161 260.222 230.531 260.955C230.9 261.687 231.085 262.594 231.085 263.673V272H228.536V263.98C228.536 263.031 228.289 262.29 227.795 261.756C227.3 261.216 226.621 260.946 225.758 260.946C225.167 260.946 224.641 261.074 224.181 261.33C223.727 261.585 223.366 261.96 223.099 262.455C222.837 262.943 222.707 263.534 222.707 264.227ZM246.342 277.182C245.303 277.182 244.408 277.045 243.658 276.773C242.913 276.5 242.305 276.139 241.834 275.69C241.362 275.241 241.01 274.75 240.777 274.216L242.967 273.312C243.121 273.562 243.325 273.827 243.581 274.105C243.842 274.389 244.195 274.631 244.638 274.83C245.087 275.028 245.663 275.128 246.368 275.128C247.334 275.128 248.132 274.892 248.763 274.42C249.393 273.955 249.709 273.21 249.709 272.188V269.614H249.547C249.393 269.892 249.172 270.202 248.882 270.543C248.598 270.884 248.206 271.179 247.706 271.429C247.206 271.679 246.555 271.804 245.754 271.804C244.72 271.804 243.788 271.562 242.959 271.08C242.135 270.591 241.482 269.872 240.999 268.923C240.521 267.969 240.283 266.795 240.283 265.403C240.283 264.011 240.518 262.818 240.99 261.824C241.467 260.83 242.121 260.068 242.95 259.54C243.78 259.006 244.72 258.739 245.771 258.739C246.584 258.739 247.24 258.875 247.74 259.148C248.24 259.415 248.629 259.727 248.908 260.085C249.192 260.443 249.411 260.759 249.564 261.031H249.751V258.909H252.249V272.29C252.249 273.415 251.987 274.338 251.464 275.06C250.942 275.781 250.234 276.315 249.342 276.662C248.456 277.009 247.456 277.182 246.342 277.182ZM246.317 269.69C247.05 269.69 247.669 269.52 248.175 269.179C248.686 268.832 249.072 268.338 249.334 267.696C249.601 267.048 249.734 266.273 249.734 265.369C249.734 264.489 249.604 263.713 249.342 263.043C249.081 262.372 248.697 261.849 248.192 261.474C247.686 261.094 247.061 260.903 246.317 260.903C245.55 260.903 244.911 261.102 244.399 261.5C243.888 261.892 243.501 262.426 243.24 263.102C242.984 263.778 242.857 264.534 242.857 265.369C242.857 266.227 242.987 266.98 243.249 267.628C243.51 268.276 243.896 268.781 244.408 269.145C244.925 269.509 245.561 269.69 246.317 269.69ZM255.666 272V258.909H258.214V272H255.666ZM256.953 256.889C256.51 256.889 256.129 256.741 255.811 256.446C255.499 256.145 255.342 255.787 255.342 255.372C255.342 254.952 255.499 254.594 255.811 254.298C256.129 253.997 256.51 253.847 256.953 253.847C257.396 253.847 257.774 253.997 258.087 254.298C258.405 254.594 258.564 254.952 258.564 255.372C258.564 255.787 258.405 256.145 258.087 256.446C257.774 256.741 257.396 256.889 256.953 256.889ZM265.452 272.29C264.623 272.29 263.873 272.136 263.202 271.83C262.532 271.517 262.001 271.065 261.609 270.474C261.222 269.884 261.029 269.159 261.029 268.301C261.029 267.562 261.171 266.955 261.455 266.477C261.739 266 262.123 265.622 262.606 265.344C263.089 265.065 263.629 264.855 264.225 264.713C264.822 264.571 265.43 264.463 266.049 264.389C266.833 264.298 267.469 264.224 267.958 264.168C268.447 264.105 268.802 264.006 269.023 263.869C269.245 263.733 269.356 263.511 269.356 263.205V263.145C269.356 262.401 269.146 261.824 268.725 261.415C268.31 261.006 267.691 260.801 266.867 260.801C266.009 260.801 265.333 260.991 264.839 261.372C264.35 261.747 264.012 262.165 263.825 262.625L261.43 262.08C261.714 261.284 262.129 260.642 262.674 260.153C263.225 259.659 263.859 259.301 264.575 259.08C265.29 258.852 266.043 258.739 266.833 258.739C267.356 258.739 267.91 258.801 268.495 258.926C269.086 259.045 269.637 259.267 270.148 259.591C270.665 259.915 271.089 260.378 271.418 260.98C271.748 261.577 271.913 262.352 271.913 263.307V272H269.424V270.21H269.322C269.157 270.54 268.91 270.864 268.58 271.182C268.251 271.5 267.827 271.764 267.31 271.974C266.793 272.185 266.174 272.29 265.452 272.29ZM266.006 270.244C266.711 270.244 267.313 270.105 267.813 269.827C268.319 269.548 268.702 269.185 268.964 268.736C269.231 268.281 269.364 267.795 269.364 267.278V265.591C269.273 265.682 269.097 265.767 268.836 265.847C268.58 265.92 268.288 265.986 267.958 266.043C267.629 266.094 267.308 266.142 266.995 266.188C266.683 266.227 266.421 266.261 266.211 266.29C265.717 266.352 265.265 266.457 264.856 266.605C264.452 266.753 264.129 266.966 263.884 267.244C263.646 267.517 263.526 267.881 263.526 268.335C263.526 268.966 263.759 269.443 264.225 269.767C264.691 270.085 265.285 270.244 266.006 270.244ZM268.009 257.102H265.998L265.93 255.364C266.532 255.335 266.958 255.256 267.208 255.125C267.458 254.989 267.58 254.793 267.575 254.537C267.58 254.23 267.407 254.011 267.055 253.881C266.708 253.75 266.285 253.685 265.785 253.685L265.862 252.278C267.151 252.278 268.129 252.483 268.793 252.892C269.464 253.301 269.796 253.852 269.79 254.545C269.796 255.108 269.612 255.523 269.237 255.79C268.867 256.051 268.458 256.216 268.009 256.284V257.102ZM277.855 264.227V272H275.307V258.909H277.753V261.04H277.915C278.216 260.347 278.688 259.79 279.33 259.369C279.977 258.949 280.793 258.739 281.776 258.739C282.668 258.739 283.449 258.926 284.119 259.301C284.79 259.67 285.31 260.222 285.679 260.955C286.048 261.687 286.233 262.594 286.233 263.673V272H283.685V263.98C283.685 263.031 283.438 262.29 282.943 261.756C282.449 261.216 281.77 260.946 280.906 260.946C280.315 260.946 279.79 261.074 279.33 261.33C278.875 261.585 278.514 261.96 278.247 262.455C277.986 262.943 277.855 263.534 277.855 264.227ZM292.966 269.614L292.838 270.543C292.753 271.224 292.608 271.935 292.403 272.673C292.205 273.418 291.997 274.108 291.781 274.744C291.571 275.381 291.398 275.886 291.261 276.261H289.455C289.528 275.909 289.631 275.432 289.761 274.83C289.892 274.233 290.02 273.565 290.145 272.827C290.27 272.088 290.364 271.335 290.426 270.568L290.511 269.614H292.966ZM305.183 264.227V272H302.635V258.909H305.081V261.04H305.243C305.544 260.347 306.016 259.79 306.658 259.369C307.305 258.949 308.121 258.739 309.104 258.739C309.996 258.739 310.777 258.926 311.447 259.301C312.118 259.67 312.638 260.222 313.007 260.955C313.376 261.687 313.561 262.594 313.561 263.673V272H311.013V263.98C311.013 263.031 310.766 262.29 310.271 261.756C309.777 261.216 309.098 260.946 308.234 260.946C307.643 260.946 307.118 261.074 306.658 261.33C306.203 261.585 305.842 261.96 305.575 262.455C305.314 262.943 305.183 263.534 305.183 264.227ZM319.527 264.227V272H316.979V254.545H319.493V261.04H319.655C319.962 260.335 320.43 259.776 321.061 259.361C321.692 258.946 322.516 258.739 323.533 258.739C324.43 258.739 325.214 258.923 325.885 259.293C326.561 259.662 327.084 260.213 327.453 260.946C327.828 261.673 328.016 262.582 328.016 263.673V272H325.467V263.98C325.467 263.02 325.22 262.276 324.726 261.747C324.232 261.213 323.544 260.946 322.663 260.946C322.061 260.946 321.521 261.074 321.044 261.33C320.572 261.585 320.2 261.96 319.928 262.455C319.661 262.943 319.527 263.534 319.527 264.227ZM335.226 272.29C334.396 272.29 333.646 272.136 332.976 271.83C332.305 271.517 331.774 271.065 331.382 270.474C330.996 269.884 330.803 269.159 330.803 268.301C330.803 267.562 330.945 266.955 331.229 266.477C331.513 266 331.896 265.622 332.379 265.344C332.862 265.065 333.402 264.855 333.999 264.713C334.595 264.571 335.203 264.463 335.822 264.389C336.607 264.298 337.243 264.224 337.732 264.168C338.22 264.105 338.575 264.006 338.797 263.869C339.018 263.733 339.129 263.511 339.129 263.205V263.145C339.129 262.401 338.919 261.824 338.499 261.415C338.084 261.006 337.464 260.801 336.641 260.801C335.783 260.801 335.107 260.991 334.612 261.372C334.124 261.747 333.786 262.165 333.598 262.625L331.203 262.08C331.487 261.284 331.902 260.642 332.447 260.153C332.999 259.659 333.632 259.301 334.348 259.08C335.064 258.852 335.817 258.739 336.607 258.739C337.129 258.739 337.683 258.801 338.268 258.926C338.859 259.045 339.411 259.267 339.922 259.591C340.439 259.915 340.862 260.378 341.192 260.98C341.521 261.577 341.686 262.352 341.686 263.307V272H339.197V270.21H339.095C338.93 270.54 338.683 270.864 338.354 271.182C338.024 271.5 337.601 271.764 337.084 271.974C336.567 272.185 335.947 272.29 335.226 272.29ZM335.78 270.244C336.484 270.244 337.087 270.105 337.587 269.827C338.092 269.548 338.476 269.185 338.737 268.736C339.004 268.281 339.138 267.795 339.138 267.278V265.591C339.047 265.682 338.871 265.767 338.609 265.847C338.354 265.92 338.061 265.986 337.732 266.043C337.402 266.094 337.081 266.142 336.768 266.188C336.456 266.227 336.195 266.261 335.984 266.29C335.49 266.352 335.038 266.457 334.629 266.605C334.226 266.753 333.902 266.966 333.658 267.244C333.419 267.517 333.3 267.881 333.3 268.335C333.3 268.966 333.533 269.443 333.999 269.767C334.464 270.085 335.058 270.244 335.78 270.244ZM338.49 257.341L336.743 255.057L334.987 257.341H332.686V257.213L335.678 253.599H337.8L340.8 257.213V257.341H338.49ZM336.624 276.517C336.186 276.517 335.808 276.369 335.49 276.074C335.172 275.778 335.013 275.42 335.013 275C335.013 274.58 335.172 274.222 335.49 273.926C335.808 273.631 336.186 273.483 336.624 273.483C337.067 273.483 337.445 273.631 337.757 273.926C338.075 274.222 338.234 274.58 338.234 275C338.234 275.42 338.075 275.778 337.757 276.074C337.445 276.369 337.067 276.517 336.624 276.517ZM347.629 264.227V272H345.08V258.909H347.526V261.04H347.688C347.989 260.347 348.461 259.79 349.103 259.369C349.751 258.949 350.566 258.739 351.549 258.739C352.441 258.739 353.222 258.926 353.893 259.301C354.563 259.67 355.083 260.222 355.452 260.955C355.822 261.687 356.006 262.594 356.006 263.673V272H353.458V263.98C353.458 263.031 353.211 262.29 352.717 261.756C352.222 261.216 351.543 260.946 350.68 260.946C350.089 260.946 349.563 261.074 349.103 261.33C348.648 261.585 348.288 261.96 348.021 262.455C347.759 262.943 347.629 263.534 347.629 264.227ZM371.886 258.909V260.955H364.736V258.909H371.886ZM366.653 255.773H369.202V268.156C369.202 268.651 369.276 269.023 369.423 269.273C369.571 269.517 369.761 269.685 369.994 269.776C370.233 269.861 370.491 269.903 370.77 269.903C370.974 269.903 371.153 269.889 371.307 269.861C371.46 269.832 371.58 269.81 371.665 269.793L372.125 271.898C371.977 271.955 371.767 272.011 371.494 272.068C371.222 272.131 370.881 272.165 370.472 272.17C369.801 272.182 369.176 272.062 368.597 271.812C368.017 271.562 367.548 271.176 367.19 270.653C366.832 270.131 366.653 269.474 366.653 268.685V255.773ZM374.705 272V258.909H377.254V272H374.705ZM375.992 256.889C375.549 256.889 375.168 256.741 374.85 256.446C374.538 256.145 374.381 255.787 374.381 255.372C374.381 254.952 374.538 254.594 374.85 254.298C375.168 253.997 375.549 253.847 375.992 253.847C376.435 253.847 376.813 253.997 377.126 254.298C377.444 254.594 377.603 254.952 377.603 255.372C377.603 255.787 377.444 256.145 377.126 256.446C376.813 256.741 376.435 256.889 375.992 256.889ZM386.324 272.264C385.034 272.264 383.923 271.989 382.991 271.438C382.065 270.881 381.349 270.099 380.844 269.094C380.344 268.082 380.094 266.898 380.094 265.54C380.094 264.199 380.344 263.017 380.844 261.994C381.349 260.972 382.054 260.173 382.957 259.599C383.866 259.026 384.929 258.739 386.145 258.739C386.884 258.739 387.599 258.861 388.293 259.105C388.986 259.349 389.608 259.733 390.159 260.256C390.71 260.778 391.145 261.457 391.463 262.293C391.781 263.122 391.94 264.131 391.94 265.318V266.222H381.534V264.312H389.443C389.443 263.642 389.307 263.048 389.034 262.531C388.761 262.009 388.378 261.597 387.884 261.295C387.395 260.994 386.821 260.844 386.162 260.844C385.446 260.844 384.821 261.02 384.287 261.372C383.759 261.719 383.349 262.173 383.06 262.736C382.776 263.293 382.634 263.898 382.634 264.551V266.043C382.634 266.918 382.787 267.662 383.094 268.276C383.406 268.889 383.841 269.358 384.398 269.682C384.955 270 385.605 270.159 386.349 270.159C386.832 270.159 387.273 270.091 387.67 269.955C388.068 269.812 388.412 269.602 388.702 269.324C388.991 269.045 389.213 268.702 389.366 268.293L391.778 268.727C391.585 269.437 391.239 270.06 390.739 270.594C390.244 271.122 389.622 271.534 388.872 271.83C388.128 272.119 387.278 272.264 386.324 272.264ZM386.98 254.426L390.457 257.384H387.943L386.051 255.696L384.151 257.384H381.645L385.08 254.426H386.98ZM380.776 252.364L382.531 255.491H380.699L378.159 252.364H380.776ZM397.316 264.227V272H394.768V258.909H397.214V261.04H397.376C397.677 260.347 398.148 259.79 398.79 259.369C399.438 258.949 400.254 258.739 401.237 258.739C402.129 258.739 402.91 258.926 403.58 259.301C404.251 259.67 404.771 260.222 405.14 260.955C405.509 261.687 405.694 262.594 405.694 263.673V272H403.146V263.98C403.146 263.031 402.898 262.29 402.404 261.756C401.91 261.216 401.231 260.946 400.367 260.946C399.776 260.946 399.251 261.074 398.79 261.33C398.336 261.585 397.975 261.96 397.708 262.455C397.447 262.943 397.316 263.534 397.316 264.227ZM418.011 264.227V272H415.463V258.909H417.909V261.04H418.071C418.372 260.347 418.844 259.79 419.486 259.369C420.134 258.949 420.949 258.739 421.932 258.739C422.824 258.739 423.605 258.926 424.276 259.301C424.946 259.67 425.466 260.222 425.835 260.955C426.205 261.687 426.389 262.594 426.389 263.673V272H423.841V263.98C423.841 263.031 423.594 262.29 423.099 261.756C422.605 261.216 421.926 260.946 421.062 260.946C420.472 260.946 419.946 261.074 419.486 261.33C419.031 261.585 418.67 261.96 418.403 262.455C418.142 262.943 418.011 263.534 418.011 264.227ZM432.355 264.227V272H429.807V254.545H432.321V261.04H432.483C432.79 260.335 433.259 259.776 433.889 259.361C434.52 258.946 435.344 258.739 436.361 258.739C437.259 258.739 438.043 258.923 438.713 259.293C439.389 259.662 439.912 260.213 440.281 260.946C440.656 261.673 440.844 262.582 440.844 263.673V272H438.295V263.98C438.295 263.02 438.048 262.276 437.554 261.747C437.06 261.213 436.372 260.946 435.491 260.946C434.889 260.946 434.349 261.074 433.872 261.33C433.401 261.585 433.028 261.96 432.756 262.455C432.489 262.943 432.355 263.534 432.355 264.227ZM448.054 272.29C447.224 272.29 446.474 272.136 445.804 271.83C445.134 271.517 444.602 271.065 444.21 270.474C443.824 269.884 443.631 269.159 443.631 268.301C443.631 267.562 443.773 266.955 444.057 266.477C444.341 266 444.724 265.622 445.207 265.344C445.69 265.065 446.23 264.855 446.827 264.713C447.423 264.571 448.031 264.463 448.651 264.389C449.435 264.298 450.071 264.224 450.56 264.168C451.048 264.105 451.403 264.006 451.625 263.869C451.847 263.733 451.957 263.511 451.957 263.205V263.145C451.957 262.401 451.747 261.824 451.327 261.415C450.912 261.006 450.293 260.801 449.469 260.801C448.611 260.801 447.935 260.991 447.44 261.372C446.952 261.747 446.614 262.165 446.426 262.625L444.031 262.08C444.315 261.284 444.73 260.642 445.276 260.153C445.827 259.659 446.46 259.301 447.176 259.08C447.892 258.852 448.645 258.739 449.435 258.739C449.957 258.739 450.511 258.801 451.097 258.926C451.688 259.045 452.239 259.267 452.75 259.591C453.267 259.915 453.69 260.378 454.02 260.98C454.349 261.577 454.514 262.352 454.514 263.307V272H452.026V270.21H451.923C451.759 270.54 451.511 270.864 451.182 271.182C450.852 271.5 450.429 271.764 449.912 271.974C449.395 272.185 448.776 272.29 448.054 272.29ZM448.608 270.244C449.313 270.244 449.915 270.105 450.415 269.827C450.92 269.548 451.304 269.185 451.565 268.736C451.832 268.281 451.966 267.795 451.966 267.278V265.591C451.875 265.682 451.699 265.767 451.438 265.847C451.182 265.92 450.889 265.986 450.56 266.043C450.23 266.094 449.909 266.142 449.597 266.188C449.284 266.227 449.023 266.261 448.812 266.29C448.318 266.352 447.866 266.457 447.457 266.605C447.054 266.753 446.73 266.966 446.486 267.244C446.247 267.517 446.128 267.881 446.128 268.335C446.128 268.966 446.361 269.443 446.827 269.767C447.293 270.085 447.886 270.244 448.608 270.244ZM460.457 264.227V272H457.908V258.909H460.354V261.04H460.516C460.817 260.347 461.289 259.79 461.931 259.369C462.579 258.949 463.394 258.739 464.377 258.739C465.269 258.739 466.05 258.926 466.721 259.301C467.391 259.67 467.911 260.222 468.281 260.955C468.65 261.687 468.835 262.594 468.835 263.673V272H466.286V263.98C466.286 263.031 466.039 262.29 465.545 261.756C465.05 261.216 464.371 260.946 463.508 260.946C462.917 260.946 462.391 261.074 461.931 261.33C461.477 261.585 461.116 261.96 460.849 262.455C460.587 262.943 460.457 263.534 460.457 264.227ZM474.8 264.227V272H472.252V254.545H474.766V261.04H474.928C475.235 260.335 475.704 259.776 476.335 259.361C476.965 258.946 477.789 258.739 478.806 258.739C479.704 258.739 480.488 258.923 481.158 259.293C481.835 259.662 482.357 260.213 482.727 260.946C483.102 261.673 483.289 262.582 483.289 263.673V272H480.741V263.98C480.741 263.02 480.494 262.276 479.999 261.747C479.505 261.213 478.817 260.946 477.937 260.946C477.335 260.946 476.795 261.074 476.317 261.33C475.846 261.585 475.474 261.96 475.201 262.455C474.934 262.943 474.8 263.534 474.8 264.227ZM498.555 272.264C497.288 272.264 496.197 271.977 495.283 271.403C494.374 270.824 493.675 270.026 493.186 269.009C492.697 267.991 492.453 266.827 492.453 265.514C492.453 264.185 492.703 263.011 493.203 261.994C493.703 260.972 494.408 260.173 495.317 259.599C496.226 259.026 497.297 258.739 498.53 258.739C499.524 258.739 500.411 258.923 501.189 259.293C501.967 259.656 502.595 260.168 503.072 260.827C503.555 261.486 503.842 262.256 503.933 263.136H501.453C501.317 262.523 501.004 261.994 500.516 261.551C500.033 261.108 499.385 260.886 498.572 260.886C497.862 260.886 497.24 261.074 496.706 261.449C496.178 261.818 495.766 262.347 495.47 263.034C495.175 263.716 495.027 264.523 495.027 265.455C495.027 266.409 495.172 267.233 495.462 267.926C495.751 268.619 496.161 269.156 496.689 269.537C497.223 269.918 497.851 270.108 498.572 270.108C499.055 270.108 499.493 270.02 499.885 269.844C500.283 269.662 500.615 269.403 500.882 269.068C501.155 268.733 501.345 268.33 501.453 267.858H503.933C503.842 268.705 503.567 269.46 503.107 270.125C502.646 270.79 502.03 271.312 501.257 271.693C500.49 272.074 499.589 272.264 498.555 272.264ZM509.207 264.227V272H506.658V254.545H509.173V261.04H509.335C509.641 260.335 510.11 259.776 510.741 259.361C511.371 258.946 512.195 258.739 513.212 258.739C514.11 258.739 514.894 258.923 515.565 259.293C516.241 259.662 516.763 260.213 517.133 260.946C517.508 261.673 517.695 262.582 517.695 263.673V272H515.147V263.98C515.147 263.02 514.9 262.276 514.406 261.747C513.911 261.213 513.224 260.946 512.343 260.946C511.741 260.946 511.201 261.074 510.724 261.33C510.252 261.585 509.88 261.96 509.607 262.455C509.34 262.943 509.207 263.534 509.207 264.227ZM526.61 272.264C525.383 272.264 524.312 271.983 523.397 271.42C522.482 270.858 521.772 270.071 521.266 269.06C520.761 268.048 520.508 266.866 520.508 265.514C520.508 264.156 520.761 262.969 521.266 261.952C521.772 260.935 522.482 260.145 523.397 259.582C524.312 259.02 525.383 258.739 526.61 258.739C527.837 258.739 528.908 259.02 529.823 259.582C530.738 260.145 531.448 260.935 531.954 261.952C532.46 262.969 532.712 264.156 532.712 265.514C532.712 266.866 532.46 268.048 531.954 269.06C531.448 270.071 530.738 270.858 529.823 271.42C528.908 271.983 527.837 272.264 526.61 272.264ZM526.619 270.125C527.414 270.125 528.073 269.915 528.596 269.494C529.119 269.074 529.505 268.514 529.755 267.815C530.011 267.116 530.138 266.347 530.138 265.506C530.138 264.67 530.011 263.903 529.755 263.205C529.505 262.5 529.119 261.935 528.596 261.509C528.073 261.082 527.414 260.869 526.619 260.869C525.817 260.869 525.153 261.082 524.624 261.509C524.102 261.935 523.712 262.5 523.457 263.205C523.207 263.903 523.082 264.67 523.082 265.506C523.082 266.347 523.207 267.116 523.457 267.815C523.712 268.514 524.102 269.074 524.624 269.494C525.153 269.915 525.817 270.125 526.619 270.125ZM525.562 257.162L527.556 253.233H530.241L527.599 257.162H525.562ZM538.105 264.227V272H535.557V258.909H538.003V261.04H538.165C538.466 260.347 538.938 259.79 539.58 259.369C540.227 258.949 541.043 258.739 542.026 258.739C542.918 258.739 543.699 258.926 544.369 259.301C545.04 259.67 545.56 260.222 545.929 260.955C546.298 261.687 546.483 262.594 546.483 263.673V272H543.935V263.98C543.935 263.031 543.688 262.29 543.193 261.756C542.699 261.216 542.02 260.946 541.156 260.946C540.565 260.946 540.04 261.074 539.58 261.33C539.125 261.585 538.764 261.96 538.497 262.455C538.236 262.943 538.105 263.534 538.105 264.227ZM555.389 277.182C554.349 277.182 553.455 277.045 552.705 276.773C551.96 276.5 551.352 276.139 550.881 275.69C550.409 275.241 550.057 274.75 549.824 274.216L552.014 273.312C552.168 273.562 552.372 273.827 552.628 274.105C552.889 274.389 553.241 274.631 553.685 274.83C554.134 275.028 554.71 275.128 555.415 275.128C556.381 275.128 557.179 274.892 557.81 274.42C558.44 273.955 558.756 273.21 558.756 272.188V269.614H558.594C558.44 269.892 558.219 270.202 557.929 270.543C557.645 270.884 557.253 271.179 556.753 271.429C556.253 271.679 555.602 271.804 554.801 271.804C553.767 271.804 552.835 271.562 552.006 271.08C551.182 270.591 550.528 269.872 550.045 268.923C549.568 267.969 549.33 266.795 549.33 265.403C549.33 264.011 549.565 262.818 550.037 261.824C550.514 260.83 551.168 260.068 551.997 259.54C552.827 259.006 553.767 258.739 554.818 258.739C555.631 258.739 556.287 258.875 556.787 259.148C557.287 259.415 557.676 259.727 557.955 260.085C558.239 260.443 558.457 260.759 558.611 261.031H558.798V258.909H561.295V272.29C561.295 273.415 561.034 274.338 560.511 275.06C559.989 275.781 559.281 276.315 558.389 276.662C557.503 277.009 556.503 277.182 555.389 277.182ZM555.364 269.69C556.097 269.69 556.716 269.52 557.222 269.179C557.733 268.832 558.119 268.338 558.381 267.696C558.648 267.048 558.781 266.273 558.781 265.369C558.781 264.489 558.651 263.713 558.389 263.043C558.128 262.372 557.744 261.849 557.239 261.474C556.733 261.094 556.108 260.903 555.364 260.903C554.597 260.903 553.957 261.102 553.446 261.5C552.935 261.892 552.548 262.426 552.287 263.102C552.031 263.778 551.903 264.534 551.903 265.369C551.903 266.227 552.034 266.98 552.295 267.628C552.557 268.276 552.943 268.781 553.455 269.145C553.972 269.509 554.608 269.69 555.364 269.69Z" fill="white"></path><path d="M21.803 79L0.361 29.3H12.786L31.53 73.32H24.217L43.245 29.3H54.676L33.163 79H21.803ZM78.6318 79V71.545L77.9218 69.912V56.564C77.9218 54.1973 77.1882 52.3513 75.7208 51.026C74.3008 49.7007 72.0998 49.038 69.1178 49.038C67.0825 49.038 65.0708 49.3693 63.0828 50.032C61.1422 50.6473 59.4855 51.4993 58.1128 52.588L54.1368 44.849C56.2195 43.3817 58.7282 42.2457 61.6628 41.441C64.5975 40.6363 67.5795 40.234 70.6088 40.234C76.4308 40.234 80.9512 41.6067 84.1698 44.352C87.3885 47.0973 88.9978 51.381 88.9978 57.203V79H78.6318ZM66.9878 79.568C64.0058 79.568 61.4498 79.071 59.3198 78.077C57.1898 77.0357 55.5568 75.6393 54.4208 73.888C53.2848 72.1367 52.7168 70.1723 52.7168 67.995C52.7168 65.723 53.2612 63.735 54.3498 62.031C55.4858 60.327 57.2608 59.0017 59.6748 58.055C62.0888 57.061 65.2365 56.564 69.1178 56.564H79.2708V63.025H70.3248C67.7215 63.025 65.9228 63.451 64.9288 64.303C63.9822 65.155 63.5088 66.22 63.5088 67.498C63.5088 68.918 64.0532 70.054 65.1418 70.906C66.2778 71.7107 67.8162 72.113 69.7568 72.113C71.6028 72.113 73.2595 71.687 74.7268 70.835C76.1942 69.9357 77.2592 68.634 77.9218 66.93L79.6258 72.042C78.8212 74.5033 77.3538 76.373 75.2238 77.651C73.0938 78.929 70.3485 79.568 66.9878 79.568ZM103.157 93.342C101.169 93.342 99.2045 93.0343 97.2638 92.419C95.3231 91.8037 93.7375 90.9517 92.5068 89.863L96.5538 81.982C97.4058 82.7393 98.3761 83.331 99.4648 83.757C100.601 84.183 101.713 84.396 102.802 84.396C104.364 84.396 105.594 84.0173 106.494 83.26C107.44 82.55 108.292 81.343 109.05 79.639L111.038 74.953L111.89 73.746L125.593 40.802H136.243L118.99 81.343C117.759 84.4197 116.339 86.8337 114.73 88.585C113.168 90.3363 111.416 91.567 109.476 92.277C107.582 92.987 105.476 93.342 103.157 93.342ZM109.689 80.491L92.6488 40.802H104.08L117.286 72.752L109.689 80.491ZM176.49 79.568C171.993 79.568 168.49 78.432 165.982 76.16C163.473 73.8407 162.219 70.409 162.219 65.865V32.353H173.295V65.723C173.295 67.3323 173.721 68.5867 174.573 69.486C175.425 70.338 176.584 70.764 178.052 70.764C179.803 70.764 181.294 70.2907 182.525 69.344L185.507 77.154C184.371 77.9587 182.998 78.574 181.389 79C179.827 79.3787 178.194 79.568 176.49 79.568ZM156.326 50.174V41.654H182.809V50.174H156.326ZM191.724 79V40.802H202.8V79H191.724ZM197.262 35.477C195.227 35.477 193.57 34.8853 192.292 33.702C191.014 32.5187 190.375 31.0513 190.375 29.3C190.375 27.5487 191.014 26.0813 192.292 24.898C193.57 23.7147 195.227 23.123 197.262 23.123C199.298 23.123 200.954 23.691 202.232 24.827C203.51 25.9157 204.149 27.3357 204.149 29.087C204.149 30.933 203.51 32.4713 202.232 33.702C201.002 34.8853 199.345 35.477 197.262 35.477ZM232.037 79.568C227.682 79.568 223.848 78.716 220.535 77.012C217.269 75.308 214.736 72.9887 212.938 70.054C211.139 67.072 210.24 63.6877 210.24 59.901C210.24 56.067 211.115 52.6827 212.867 49.748C214.665 46.766 217.103 44.4467 220.18 42.79C223.256 41.086 226.735 40.234 230.617 40.234C234.356 40.234 237.717 41.0387 240.699 42.648C243.728 44.21 246.118 46.482 247.87 49.464C249.621 52.3987 250.497 55.925 250.497 60.043C250.497 60.469 250.473 60.966 250.426 61.534C250.378 62.0547 250.331 62.5517 250.284 63.025H219.257V56.564H244.462L240.202 58.481C240.202 56.493 239.799 54.7653 238.995 53.298C238.19 51.8307 237.078 50.6947 235.658 49.89C234.238 49.038 232.581 48.612 230.688 48.612C228.794 48.612 227.114 49.038 225.647 49.89C224.227 50.6947 223.114 51.8543 222.31 53.369C221.505 54.8363 221.103 56.5877 221.103 58.623V60.327C221.103 62.4097 221.552 64.2557 222.452 65.865C223.398 67.427 224.7 68.634 226.357 69.486C228.061 70.2907 230.049 70.693 232.321 70.693C234.356 70.693 236.131 70.3853 237.646 69.77C239.208 69.1547 240.628 68.2317 241.906 67.001L247.799 73.391C246.047 75.379 243.846 76.9173 241.196 78.006C238.545 79.0473 235.492 79.568 232.037 79.568ZM216.133 35.903L225.576 27.809H235.232L244.675 35.903H236.51L226.925 29.513H233.883L224.298 35.903H216.133ZM243.184 29.087L232.037 20.496H243.326L251.136 29.087H243.184ZM281.088 40.234C284.117 40.234 286.815 40.8493 289.182 42.08C291.596 43.2633 293.489 45.1093 294.862 47.618C296.234 50.0793 296.921 53.2507 296.921 57.132V79H285.845V58.836C285.845 55.7593 285.158 53.4873 283.786 52.02C282.46 50.5527 280.567 49.819 278.106 49.819C276.354 49.819 274.769 50.1977 273.349 50.955C271.976 51.665 270.887 52.7773 270.083 54.292C269.325 55.8067 268.947 57.7473 268.947 60.114V79H257.871V40.802H268.45V51.381L266.462 48.186C267.834 45.63 269.799 43.6657 272.355 42.293C274.911 40.9203 277.822 40.234 281.088 40.234ZM350.285 40.234C353.314 40.234 356.012 40.8493 358.379 42.08C360.793 43.2633 362.686 45.1093 364.059 47.618C365.432 50.0793 366.118 53.2507 366.118 57.132V79H355.042V58.836C355.042 55.7593 354.356 53.4873 352.983 52.02C351.658 50.5527 349.764 49.819 347.303 49.819C345.552 49.819 343.966 50.1977 342.546 50.955C341.173 51.665 340.085 52.7773 339.28 54.292C338.523 55.8067 338.144 57.7473 338.144 60.114V79H327.068V40.802H337.647V51.381L335.659 48.186C337.032 45.63 338.996 43.6657 341.552 42.293C344.108 40.9203 347.019 40.234 350.285 40.234ZM399.375 40.234C402.404 40.234 405.102 40.8493 407.469 42.08C409.883 43.2633 411.776 45.1093 413.149 47.618C414.522 50.0793 415.208 53.2507 415.208 57.132V79H404.132V58.836C404.132 55.7593 403.446 53.4873 402.073 52.02C400.748 50.5527 398.854 49.819 396.393 49.819C394.642 49.819 393.056 50.1977 391.636 50.955C390.263 51.665 389.175 52.7773 388.37 54.292C387.613 55.8067 387.234 57.7473 387.234 60.114V79H376.158V26.318H387.234V51.381L384.749 48.186C386.122 45.63 388.086 43.6657 390.642 42.293C393.198 40.9203 396.109 40.234 399.375 40.234ZM448.678 79V71.545L447.968 69.912V56.564C447.968 54.1973 447.234 52.3513 445.767 51.026C444.347 49.7007 442.146 49.038 439.164 49.038C437.128 49.038 435.117 49.3693 433.129 50.032C431.188 50.6473 429.531 51.4993 428.159 52.588L424.183 44.849C426.265 43.3817 428.774 42.2457 431.709 41.441C434.643 40.6363 437.625 40.234 440.655 40.234C446.477 40.234 450.997 41.6067 454.216 44.352C457.434 47.0973 459.044 51.381 459.044 57.203V79H448.678ZM437.034 79.568C434.052 79.568 431.496 79.071 429.366 78.077C427.236 77.0357 425.603 75.6393 424.467 73.888C423.331 72.1367 422.763 70.1723 422.763 67.995C422.763 65.723 423.307 63.735 424.396 62.031C425.532 60.327 427.307 59.0017 429.721 58.055C432.135 57.061 435.282 56.564 439.164 56.564H449.317V63.025H440.371C437.767 63.025 435.969 63.451 434.975 64.303C434.028 65.155 433.555 66.22 433.555 67.498C433.555 68.918 434.099 70.054 435.188 70.906C436.324 71.7107 437.862 72.113 439.803 72.113C441.649 72.113 443.305 71.687 444.773 70.835C446.24 69.9357 447.305 68.634 447.968 66.93L449.672 72.042C448.867 74.5033 447.4 76.373 445.27 77.651C443.14 78.929 440.394 79.568 437.034 79.568ZM492.285 40.234C495.314 40.234 498.012 40.8493 500.379 42.08C502.793 43.2633 504.686 45.1093 506.059 47.618C507.432 50.0793 508.118 53.2507 508.118 57.132V79H497.042V58.836C497.042 55.7593 496.356 53.4873 494.983 52.02C493.658 50.5527 491.764 49.819 489.303 49.819C487.552 49.819 485.966 50.1977 484.546 50.955C483.173 51.665 482.085 52.7773 481.28 54.292C480.523 55.8067 480.144 57.7473 480.144 60.114V79H469.068V40.802H479.647V51.381L477.659 48.186C479.032 45.63 480.996 43.6657 483.552 42.293C486.108 40.9203 489.019 40.234 492.285 40.234ZM541.375 40.234C544.404 40.234 547.102 40.8493 549.469 42.08C551.883 43.2633 553.776 45.1093 555.149 47.618C556.522 50.0793 557.208 53.2507 557.208 57.132V79H546.132V58.836C546.132 55.7593 545.446 53.4873 544.073 52.02C542.748 50.5527 540.854 49.819 538.393 49.819C536.642 49.819 535.056 50.1977 533.636 50.955C532.263 51.665 531.175 52.7773 530.37 54.292C529.613 55.8067 529.234 57.7473 529.234 60.114V79H518.158V26.318H529.234V51.381L526.749 48.186C528.122 45.63 530.086 43.6657 532.642 42.293C535.198 40.9203 538.109 40.234 541.375 40.234Z" fill="white"></path><path d="M352.82 159.426C349.081 159.426 345.602 158.811 342.383 157.58C339.212 156.302 336.443 154.527 334.076 152.255C331.757 149.936 329.934 147.261 328.609 144.232C327.331 141.155 326.692 137.795 326.692 134.15C326.692 130.505 327.331 127.168 328.609 124.139C329.934 121.062 331.757 118.388 334.076 116.116C336.443 113.797 339.212 112.022 342.383 110.791C345.554 109.513 349.033 108.874 352.82 108.874C356.559 108.874 360.015 109.513 363.186 110.791C366.357 112.022 369.103 113.773 371.422 116.045C373.789 118.317 375.611 120.991 376.889 124.068C378.214 127.145 378.877 130.505 378.877 134.15C378.877 137.795 378.214 141.155 376.889 144.232C375.611 147.309 373.789 149.983 371.422 152.255C369.103 154.527 366.357 156.302 363.186 157.58C360.015 158.811 356.559 159.426 352.82 159.426ZM352.82 154.74C355.802 154.74 358.547 154.243 361.056 153.249C363.612 152.208 365.813 150.764 367.659 148.918C369.552 147.025 371.02 144.847 372.061 142.386C373.102 139.877 373.623 137.132 373.623 134.15C373.623 131.168 373.102 128.446 372.061 125.985C371.02 123.476 369.552 121.299 367.659 119.453C365.813 117.56 363.612 116.116 361.056 115.122C358.547 114.081 355.802 113.56 352.82 113.56C349.838 113.56 347.069 114.081 344.513 115.122C341.957 116.116 339.732 117.56 337.839 119.453C335.993 121.299 334.526 123.476 333.437 125.985C332.396 128.446 331.875 131.168 331.875 134.15C331.875 137.085 332.396 139.806 333.437 142.315C334.526 144.824 335.993 147.025 337.839 148.918C339.732 150.764 341.957 152.208 344.513 153.249C347.069 154.243 349.838 154.74 352.82 154.74ZM408.617 121.37C411.646 121.37 414.297 121.962 416.569 123.145C418.888 124.281 420.687 126.032 421.965 128.399C423.29 130.766 423.953 133.748 423.953 137.345V159H418.912V137.842C418.912 133.913 417.918 130.955 415.93 128.967C413.989 126.932 411.244 125.914 407.694 125.914C405.043 125.914 402.724 126.458 400.736 127.547C398.795 128.588 397.28 130.127 396.192 132.162C395.15 134.15 394.63 136.564 394.63 139.404V159H389.589V121.725H394.417V131.949L393.636 130.032C394.819 127.334 396.712 125.228 399.316 123.713C401.919 122.151 405.019 121.37 408.617 121.37ZM437.569 159V106.318H442.61V159H437.569ZM456.636 159V121.725H461.677V159H456.636ZM459.192 113.489C458.151 113.489 457.275 113.134 456.565 112.424C455.855 111.714 455.5 110.862 455.5 109.868C455.5 108.874 455.855 108.046 456.565 107.383C457.275 106.673 458.151 106.318 459.192 106.318C460.234 106.318 461.109 106.649 461.819 107.312C462.529 107.975 462.884 108.803 462.884 109.797C462.884 110.838 462.529 111.714 461.819 112.424C461.157 113.134 460.281 113.489 459.192 113.489ZM494.732 121.37C497.761 121.37 500.412 121.962 502.684 123.145C505.003 124.281 506.802 126.032 508.08 128.399C509.405 130.766 510.068 133.748 510.068 137.345V159H505.027V137.842C505.027 133.913 504.033 130.955 502.045 128.967C500.104 126.932 497.359 125.914 493.809 125.914C491.158 125.914 488.839 126.458 486.851 127.547C484.91 128.588 483.395 130.127 482.307 132.162C481.265 134.15 480.745 136.564 480.745 139.404V159H475.704V121.725H480.532V131.949L479.751 130.032C480.934 127.334 482.827 125.228 485.431 123.713C488.034 122.151 491.134 121.37 494.732 121.37ZM539.517 159.355C535.636 159.355 532.228 158.55 529.293 156.941C526.359 155.284 524.063 153.036 522.406 150.196C520.75 147.309 519.921 144.019 519.921 140.327C519.921 136.635 520.702 133.369 522.264 130.529C523.874 127.689 526.051 125.464 528.796 123.855C531.589 122.198 534.713 121.37 538.168 121.37C541.671 121.37 544.771 122.175 547.469 123.784C550.215 125.346 552.368 127.571 553.93 130.458C555.492 133.298 556.273 136.588 556.273 140.327C556.273 140.564 556.25 140.824 556.202 141.108C556.202 141.345 556.202 141.605 556.202 141.889H523.755V138.126H553.504L551.516 139.617C551.516 136.919 550.925 134.529 549.741 132.446C548.605 130.316 547.043 128.659 545.055 127.476C543.067 126.293 540.772 125.701 538.168 125.701C535.612 125.701 533.317 126.293 531.281 127.476C529.246 128.659 527.66 130.316 526.524 132.446C525.388 134.576 524.82 137.014 524.82 139.759V140.54C524.82 143.38 525.436 145.889 526.666 148.066C527.944 150.196 529.696 151.876 531.92 153.107C534.192 154.29 536.772 154.882 539.659 154.882C541.931 154.882 544.038 154.48 545.978 153.675C547.966 152.87 549.67 151.64 551.09 149.983L553.93 153.249C552.274 155.237 550.191 156.752 547.682 157.793C545.221 158.834 542.499 159.355 539.517 159.355Z" fill="white"></path><g clip-path="url(#clip0_2257_93)"><path d="M287.067 160.944C285.317 160.981 280.961 161 274 161C267.039 161 262.683 160.981 260.933 160.944C255.994 160.831 252.271 160.511 249.763 159.985C247.254 159.459 246 158.575 246 157.334C246 156.582 246.389 155.069 247.167 152.795C247.944 150.52 248.8 148.133 249.733 145.632C250.667 143.132 251.522 140.256 252.3 137.004C253.078 133.752 253.467 130.904 253.467 128.46C253.467 121.242 260.311 117.632 274 117.632C287.689 117.632 294.533 121.242 294.533 128.46C294.533 130.904 294.922 133.752 295.7 137.004C296.478 140.256 297.333 143.132 298.267 145.632C299.2 148.133 300.056 150.52 300.833 152.795C301.611 155.069 302 156.582 302 157.334C302 158.575 300.746 159.459 298.237 159.985C295.729 160.511 292.006 160.831 287.067 160.944ZM274 130.265C276.644 130.265 278.851 130.566 280.621 131.167C282.39 131.769 283.294 132.652 283.333 133.818V133.874C283.333 134.363 283.518 134.786 283.888 135.143C284.257 135.5 284.694 135.679 285.2 135.679C285.706 135.679 286.143 135.5 286.513 135.143C286.882 134.786 287.067 134.363 287.067 133.874C287.067 129.475 283.333 127.088 275.867 126.712V124.851C275.867 124.362 275.682 123.939 275.312 123.582C274.943 123.225 274.506 123.046 274 123.046C273.494 123.046 273.057 123.225 272.688 123.582C272.318 123.939 272.133 124.362 272.133 124.851V126.712C264.667 127.088 260.933 129.475 260.933 133.874C260.933 134.701 261.06 135.416 261.312 136.017C261.565 136.619 261.974 137.117 262.538 137.512C263.101 137.906 263.714 138.226 264.375 138.47C265.036 138.715 265.911 138.893 267 139.006C268.089 139.119 269.139 139.194 270.15 139.232C271.161 139.269 272.444 139.288 274 139.288C276.683 139.288 278.91 139.598 280.679 140.219C282.449 140.839 283.333 141.732 283.333 142.897C283.333 144.063 282.449 144.956 280.679 145.576C278.91 146.196 276.683 146.507 274 146.507C271.356 146.507 269.149 146.206 267.379 145.604C265.61 145.003 264.706 144.119 264.667 142.954V142.897C264.667 142.409 264.482 141.986 264.112 141.628C263.743 141.271 263.306 141.093 262.8 141.093C262.294 141.093 261.857 141.271 261.488 141.628C261.118 141.986 260.933 142.409 260.933 142.897C260.933 147.296 264.667 149.683 272.133 150.059V151.92C272.133 152.409 272.318 152.832 272.688 153.189C273.057 153.546 273.494 153.725 274 153.725C274.506 153.725 274.943 153.546 275.312 153.189C275.682 152.832 275.867 152.409 275.867 151.92V150.059C283.333 149.683 287.067 147.296 287.067 142.897C287.067 138.085 282.711 135.679 274 135.679C273.456 135.679 272.775 135.688 271.958 135.707C271.142 135.726 270.481 135.745 269.975 135.763C269.469 135.782 268.906 135.782 268.283 135.763C267.661 135.745 267.156 135.698 266.767 135.622C266.378 135.547 266.008 135.444 265.658 135.312C265.308 135.181 265.056 134.993 264.9 134.748C264.744 134.504 264.667 134.212 264.667 133.874C264.667 132.709 265.561 131.816 267.35 131.195C269.139 130.575 271.356 130.265 274 130.265ZM274 114.023C271.667 114.023 269.528 114.136 267.583 114.362C266.767 112.782 266.076 111.25 265.513 109.765C264.949 108.28 264.667 107.293 264.667 106.805C264.667 106.203 265.172 105.602 266.183 105C267.117 105.526 268.303 105.959 269.742 106.297C271.181 106.635 272.6 106.805 274 106.805C275.4 106.805 276.819 106.635 278.258 106.297C279.697 105.959 280.883 105.526 281.817 105C282.828 105.602 283.333 106.203 283.333 106.805C283.333 107.293 283.051 108.28 282.487 109.765C281.924 111.25 281.233 112.782 280.417 114.362C278.472 114.136 276.333 114.023 274 114.023Z" fill="white"></path></g><defs><clipPath id="clip0_2257_93"><rect width="56" height="56" fill="white" transform="translate(246 105)"></rect></clipPath></defs></svg> 