<svg width="190" height="123" viewBox="0 0 190 123" fill="none" xmlns="http://www.w3.org/2000/svg">
  <g clip-path="url(#clip0_4001_223)">
    <path
      d="M176.898 123H13.1044C9.48586 123 6.55273 120.063 6.55273 116.439V11.4683C6.55273 7.84485 9.48586 4.90771 13.1044 4.90771H176.898C180.516 4.90771 183.449 7.84485 183.449 11.4683V116.439C183.449 120.062 180.516 123 176.898 123Z"
      fill="#EFF2FA" />
    <path
      d="M78.6202 113.159H19.6549C17.8458 113.159 16.3789 111.69 16.3789 109.878V24.5896C16.3789 22.778 17.8458 21.3091 19.6549 21.3091H78.6206C80.4297 21.3091 81.8966 22.778 81.8966 24.5896V109.879C81.8963 111.69 80.4293 113.159 78.6202 113.159Z"
      fill="#FACC56" />
    <path
      d="M49.1381 29.6066C18.6375 29.6066 22.0193 66.7481 22.1585 93.6639C22.1637 94.6803 22.6954 95.597 23.5649 96.1217C26.9448 98.1622 36.227 102.932 49.1381 102.932C62.0492 102.932 71.3314 98.1622 74.7113 96.1217C75.5807 95.597 76.1125 94.6803 76.1177 93.6639C76.2569 66.7488 79.6387 29.6066 49.1381 29.6066Z"
      fill="#694B4B" />
    <path
      d="M47.1728 29.6831C18.806 31.2758 22.0223 67.3471 22.1585 93.6635C22.1637 94.6799 22.6954 95.5966 23.5649 96.1213C26.9448 98.1618 36.227 102.932 49.1381 102.932L56.8461 48.9027"
      fill="#5A4146" />
    <path
      d="M49.1371 29.6066C31.7944 29.6066 30.5898 50.5909 30.5898 50.5909C40.586 48.9023 46.7283 53.1233 56.8451 48.9023L49.1371 102.932C62.0486 102.932 71.3304 98.1622 74.7103 96.1217C75.5798 95.597 76.1115 94.6803 76.1167 93.6639C76.2559 66.7488 79.6377 29.6066 49.1371 29.6066Z"
      fill="#694B4B" />
    <path
      d="M76.1176 93.664C76.2371 70.5359 78.7305 39.8792 60.0831 31.7032C59.758 33.3951 59.1687 38.1181 60.6998 41.1842C64.554 48.9028 68.4078 48.9028 72.2616 54.6916C76.1158 75.9174 64.898 98.4461 61.1718 101.513C67.7732 99.9408 72.505 97.4532 74.7108 96.1217C75.5803 95.597 76.1121 94.6803 76.1176 93.664Z"
      fill="#785550" />
    <path
      d="M78.3386 99.5182L61.144 92.344C59.7078 91.745 58.7723 90.3396 58.7723 88.7815V84.1187H39.5029V88.7815C39.5029 90.3396 38.5673 91.7446 37.1312 92.344L19.9366 99.5182C17.7824 100.417 16.3789 102.524 16.3789 104.862V109.879C16.3789 111.69 17.8458 113.159 19.6549 113.159H78.6206C80.4297 113.159 81.8966 111.69 81.8966 109.879V104.862C81.8963 102.524 80.4928 100.417 78.3386 99.5182Z"
      fill="#E6AF78" />
    <path
      d="M78.3386 99.5182L61.7136 92.5815L49.1376 98.0165L36.5616 92.5815L19.9366 99.5182C17.7824 100.417 16.3789 102.524 16.3789 104.862V109.879C16.3789 111.69 17.8458 113.159 19.6549 113.159H78.6206C80.4297 113.159 81.8966 111.69 81.8966 109.879V104.862C81.8963 102.524 80.4928 100.417 78.3386 99.5182Z"
      fill="#707487" />
    <path
      d="M58.7736 84.1183H39.5042V88.7811C39.5042 90.3393 38.5686 91.7447 37.1325 92.3437L34.4473 93.4644C54.9977 98.7114 58.7736 84.1183 58.7736 84.1183Z"
      fill="#D29B6E" />
    <path
      d="M25.7713 106.983L18.0366 100.822C17.0001 101.883 16.3789 103.319 16.3789 104.862V109.879C16.3789 111.69 17.8458 113.159 19.6549 113.159H27.9407V111.487C27.9407 109.733 27.1421 108.074 25.7713 106.983Z"
      fill="#5B5D6E" />
    <path
      d="M81.8974 109.879V104.862C81.8974 103.33 81.2865 101.905 80.2649 100.846L72.5053 106.983C71.1342 108.081 70.3359 109.745 70.3359 111.503V113.159H78.6217C80.4304 113.159 81.8974 111.69 81.8974 109.879Z"
      fill="#5B5D6E" />
    <path
      d="M49.4271 109.879H48.8489C47.9442 109.879 47.2109 109.144 47.2109 108.238V98.0209H51.0651V108.238C51.0651 109.144 50.3315 109.879 49.4271 109.879Z"
      fill="#5B5D6E" />
    <path
      d="M49.1386 98.0165L38.1097 89.7335C37.4017 89.2017 36.393 89.3745 35.9021 90.1118L33.7227 93.3852L40.4844 102.865C40.9983 103.585 42.0114 103.726 42.7016 103.173L49.1386 98.0165Z"
      fill="#5B5D6E" />
    <path
      d="M49.1387 98.0165L60.1676 89.7335C60.8756 89.2017 61.8843 89.3745 62.3752 90.1118L64.5546 93.3852L57.7929 102.865C57.279 103.585 56.2659 103.726 55.5757 103.173L49.1387 98.0165Z"
      fill="#5B5D6E" />
    <path
      d="M58.7719 46.973C49.1372 56.6209 30.2285 48.9027 30.2285 64.3398L31.4249 75.7108C31.6557 78.2544 33.1282 80.519 35.3578 81.7594L46.3295 87.8629C48.0755 88.8343 50.1982 88.8343 51.9442 87.8629L62.9159 81.7594C65.1455 80.519 66.618 78.2544 66.8488 75.7108L68.23 62.2061C68.3283 61.2462 68.3491 60.2804 68.3168 59.3172C67.5962 54.405 60.699 50.8325 58.7719 46.973Z"
      fill="#F0C087" />
    <path
      d="M30.2305 64.3398L31.4269 75.7108C31.6577 78.2544 33.1302 80.5189 35.3597 81.7594L46.3315 87.8629C47.5431 88.537 48.9325 88.7113 50.2551 88.45C50.2551 88.45 44.7235 86.7711 41.4312 77.8471C40.4226 75.1133 39.0228 60.6412 40.227 58.8724C42.6072 55.3764 55.8834 55.013 59.8063 48.5274C59.6126 48.2866 59.4333 48.0455 59.2704 47.8039C59.2574 47.7846 59.2415 47.7649 59.2281 47.7452C59.0578 47.4884 58.9034 47.2313 58.7739 46.973C49.1388 56.6216 30.2305 48.9027 30.2305 64.3398Z"
      fill="#E6AF78" />
    <path
      d="M150.69 34.4307H98.276C96.4669 34.4307 95 32.9618 95 31.1503C95 29.3387 96.4669 27.8698 98.276 27.8698H150.69C152.499 27.8698 153.966 29.3387 153.966 31.1503C153.966 32.9622 152.499 34.4307 150.69 34.4307Z"
      fill="#FACC56" />
    <path
      d="M167.069 47.5523H98.276C96.4669 47.5523 95 46.0833 95 44.2718C95 42.4602 96.4669 40.9913 98.276 40.9913H167.069C168.878 40.9913 170.345 42.4602 170.345 44.2718C170.345 46.0833 168.878 47.5523 167.069 47.5523Z"
      fill="#FACC56" />
    <path
      d="M104.828 77.0753H98.276C96.4669 77.0753 95 75.6063 95 73.7948C95 71.9832 96.4669 70.5143 98.276 70.5143H104.828C106.637 70.5143 108.104 71.9832 108.104 73.7948C108.103 75.6063 106.637 77.0753 104.828 77.0753Z"
      fill="#959CB3" />
    <path
      d="M157.241 77.0753H117.93C116.121 77.0753 114.654 75.6063 114.654 73.7948C114.654 71.9832 116.121 70.5143 117.93 70.5143H157.241C159.05 70.5143 160.517 71.9832 160.517 73.7948C160.517 75.6063 159.05 77.0753 157.241 77.0753Z"
      fill="#C7CFE2" />
    <path
      d="M104.828 90.1966H98.276C96.4669 90.1966 95 88.7276 95 86.9161C95 85.1045 96.4669 83.6356 98.276 83.6356H104.828C106.637 83.6356 108.104 85.1045 108.104 86.9161C108.103 88.728 106.637 90.1966 104.828 90.1966Z"
      fill="#959CB3" />
    <path
      d="M167.068 90.1966H117.93C116.121 90.1966 114.654 88.7276 114.654 86.9161C114.654 85.1045 116.121 83.6356 117.93 83.6356H167.068C168.877 83.6356 170.344 85.1045 170.344 86.9161C170.344 88.728 168.877 90.1966 167.068 90.1966Z"
      fill="#C7CFE2" />
    <path
      d="M104.828 103.318H98.276C96.4669 103.318 95 101.849 95 100.037C95 98.2257 96.4669 96.7568 98.276 96.7568H104.828C106.637 96.7568 108.104 98.2257 108.104 100.037C108.103 101.849 106.637 103.318 104.828 103.318Z"
      fill="#959CB3" />
    <path
      d="M144.137 103.318H117.93C116.121 103.318 114.654 101.849 114.654 100.037C114.654 98.2257 116.121 96.7568 117.93 96.7568H144.137C145.946 96.7568 147.413 98.2257 147.413 100.037C147.413 101.849 145.946 103.318 144.137 103.318Z"
      fill="#C7CFE2" />
  </g>
  <defs>
    <clipPath id="clip0_4001_223">
      <rect width="190" height="123" fill="white" />
    </clipPath>
  </defs>
</svg>